<svg width="100" height="79" viewBox="0 0 100 79" fill="none" xmlns="http://www.w3.org/2000/svg">
<path d="M26.2674 24.9407L29.4498 19.4928C29.8257 18.8492 29.5982 18.0377 28.956 17.6712L20.2689 12.714C19.8676 12.485 19.3824 12.4198 18.9322 12.539C18.4821 12.6582 18.1001 12.9456 17.8632 13.3512L9.70142 27.3234C7.11128 31.7575 6.42375 36.9247 7.76573 41.8748C9.1077 46.8249 12.3171 50.96 16.8033 53.52L17.062 53.6676C21.5482 56.2276 26.7762 56.9072 31.7845 55.5808C36.7929 54.2544 40.9765 51.0823 43.5667 46.6482L51.7336 32.6672C51.9653 32.2705 52.0314 31.7912 51.9107 31.3461C51.7902 30.9012 51.4992 30.5236 51.089 30.2895L43.5793 26.0042C42.9281 25.6326 42.1071 25.8575 41.7363 26.4922L38.554 31.9401C38.1781 32.5837 38.4054 33.3951 39.0478 33.7617L40.2162 34.4284L35.7053 42.1506C32.8526 47.0342 26.541 48.6983 21.6088 45.8838L21.3502 45.7362C16.4092 42.9167 14.7254 36.6785 17.573 31.8036L22.0839 24.0815L24.4385 25.4251C25.0756 25.8003 25.8966 25.5754 26.2674 24.9407Z" fill="#FF9900"/>
<path d="M69.5407 1.10919C69.0979 0.875078 68.6035 0.75293 68.1093 0.75293C66.9558 0.75293 65.9054 1.37385 65.3697 2.38157L60.0041 12.4588C59.2111 13.9449 59.7877 15.7975 61.3017 16.5813C61.7446 16.8154 62.239 16.9375 62.7332 16.9375C63.8867 16.9375 64.9371 16.3166 65.4727 15.3089L70.8385 5.23169C71.2194 4.50898 71.3019 3.68448 71.0547 2.9007C70.8074 2.12709 70.2719 1.48582 69.5407 1.10919Z" fill="#FF9900"/>
<path d="M43.507 2.14777C43.1054 0.865215 41.9211 0 40.5616 0C40.2527 0 39.9437 0.0508951 39.6451 0.142506C38.0179 0.641277 37.1014 2.36153 37.6059 3.96981L41.0251 14.841C41.4267 16.1235 42.6111 16.9887 43.9705 16.9887C44.2795 16.9887 44.5884 16.9378 44.8871 16.8462C45.6801 16.6019 46.3186 16.0726 46.71 15.3499C47.091 14.6272 47.1734 13.8027 46.9263 13.0189L43.507 2.14777Z" fill="#FF9900"/>
<path d="M67.7387 22.0168C68.1404 23.2993 69.3247 24.1646 70.6843 24.1646C70.9932 24.1646 71.3022 24.1137 71.6007 24.022L82.5998 20.6426C84.2271 20.1439 85.1436 18.4236 84.6287 16.8255C84.2271 15.5429 83.0428 14.6777 81.6832 14.6777C81.3743 14.6777 81.0653 14.7286 80.7666 14.8202L69.7676 18.1895C68.1404 18.6883 67.2341 20.4085 67.7387 22.0168Z" fill="#FF9900"/>
<path d="M63.0826 52.67L57.3669 49.9023C56.6999 49.5793 55.8814 49.8562 55.5546 50.5155L51.1494 59.419C50.9443 59.8328 50.9124 60.3062 51.0658 60.7491C51.2159 61.1825 51.5381 61.5469 51.9567 61.7497L66.6186 68.8494C71.2748 71.1041 76.5373 71.432 81.4383 69.7737C86.3393 68.1153 90.2942 64.6683 92.5754 60.0663L92.71 59.7949C94.9911 55.1926 95.3231 49.9915 93.6452 45.1473C91.9674 40.3034 88.4797 36.3944 83.8236 34.1398L69.1553 27.0531C68.7368 26.8505 68.2577 26.8189 67.8095 26.9705C67.3711 27.1189 67.0024 27.4373 66.7972 27.851L62.9846 35.5427C62.6578 36.2021 62.938 37.0109 63.605 37.3339L69.3207 40.1015C69.9879 40.4247 70.8062 40.1477 71.1331 39.4882L71.729 38.2861L79.8382 42.2128C84.9522 44.6891 87.0704 50.8043 84.5682 55.8684L84.4336 56.1401C81.9282 61.1946 75.741 63.2882 70.6173 60.8151L62.5081 56.8885L63.7063 54.471C64.0396 53.7987 63.7627 52.9992 63.0826 52.67Z" fill="#FF9900"/>
</svg>
